<svg width="25" height="26" viewBox="0 0 20 21" fill="none" xmlns="http://www.w3.org/2000/svg">
<ellipse cx="10" cy="10.6593" rx="9.70874" ry="9.72697" fill="#666666"/>
<path d="M14.2444 8.35362C14.2392 7.96072 14.1658 7.57172 14.0274 7.20402C13.9075 6.89387 13.7243 6.6122 13.4895 6.37701C13.2548 6.14181 12.9737 5.95827 12.6641 5.83809C12.3018 5.70184 11.9191 5.62817 11.5322 5.62021C11.0341 5.5979 10.8761 5.59167 9.61168 5.59167C8.34722 5.59167 8.18515 5.59167 7.69065 5.62021C7.30394 5.62822 6.92138 5.7019 6.55926 5.83809C6.24965 5.95818 5.96847 6.1417 5.73371 6.37691C5.49894 6.61211 5.31577 6.89383 5.1959 7.20402C5.05964 7.56671 4.98626 7.95008 4.97895 8.33754C4.95668 8.83712 4.94995 8.99535 4.94995 10.2622C4.94995 11.529 4.94995 11.6909 4.97895 12.1868C4.98671 12.5749 5.05972 12.9577 5.1959 13.3214C5.31597 13.6315 5.49928 13.9131 5.73412 14.1482C5.96896 14.3833 6.25017 14.5668 6.55978 14.6868C6.92091 14.8285 7.30353 14.9075 7.69117 14.9203C8.18981 14.9426 8.34773 14.9493 9.61219 14.9493C10.8767 14.9493 11.0387 14.9493 11.5332 14.9203C11.9201 14.9126 12.3029 14.8391 12.6651 14.7029C12.9746 14.5826 13.2557 14.399 13.4904 14.1638C13.7251 13.9286 13.9084 13.647 14.0285 13.337C14.1647 12.9738 14.2377 12.591 14.2454 12.2024C14.2677 11.7033 14.2744 11.5451 14.2744 10.2778C14.2734 9.01091 14.2734 8.85009 14.2444 8.35362V8.35362ZM9.60857 12.6579C8.28612 12.6579 7.21479 11.5845 7.21479 10.2596C7.21479 8.93465 8.28612 7.86131 9.60857 7.86131C10.2434 7.86131 10.8523 8.11398 11.3012 8.56375C11.7501 9.01352 12.0023 9.62353 12.0023 10.2596C12.0023 10.8957 11.7501 11.5057 11.3012 11.9554C10.8523 12.4052 10.2434 12.6579 9.60857 12.6579V12.6579ZM12.0976 8.33184C11.7885 8.33184 11.5394 8.08179 11.5394 7.7726C11.5394 7.69919 11.5539 7.6265 11.5819 7.55869C11.6099 7.49087 11.651 7.42925 11.7028 7.37734C11.7547 7.32543 11.8162 7.28426 11.8838 7.25617C11.9515 7.22808 12.0241 7.21362 12.0974 7.21362C12.1706 7.21362 12.2432 7.22808 12.3109 7.25617C12.3786 7.28426 12.4401 7.32543 12.4919 7.37734C12.5437 7.42925 12.5848 7.49087 12.6128 7.55869C12.6409 7.6265 12.6553 7.69919 12.6553 7.7726C12.6553 8.08179 12.4057 8.33184 12.0976 8.33184Z" fill="white"/>
<path d="M9.60866 11.8172C10.4674 11.8172 11.1636 11.1197 11.1636 10.2593C11.1636 9.3989 10.4674 8.70142 9.60866 8.70142C8.74988 8.70142 8.05371 9.3989 8.05371 10.2593C8.05371 11.1197 8.74988 11.8172 9.60866 11.8172Z" fill="white"/>
</svg>
