<svg width="25" height="26" viewBox="0 0 20 21" fill="none" xmlns="http://www.w3.org/2000/svg">
<ellipse cx="10.2913" cy="10.6593" rx="9.70874" ry="9.72697" fill="#666666"/>
<path d="M15.9319 6.60608C15.4995 6.79802 15.0351 6.92772 14.5468 6.98634C15.0506 6.68431 15.4275 6.20894 15.6072 5.64894C15.1339 5.93063 14.6158 6.12891 14.0756 6.23516C13.7123 5.84652 13.2311 5.58893 12.7067 5.50237C12.1823 5.41582 11.6441 5.50513 11.1755 5.75646C10.707 6.00778 10.3344 6.40706 10.1156 6.89229C9.89674 7.37752 9.84392 7.92156 9.96533 8.43994C9.00621 8.39169 8.06793 8.14193 7.21139 7.70687C6.35484 7.2718 5.59918 6.66115 4.99344 5.91455C4.78632 6.27251 4.66723 6.68753 4.66723 7.12952C4.667 7.52742 4.7648 7.91922 4.95195 8.27016C5.13911 8.62111 5.40983 8.92035 5.7401 9.14132C5.35708 9.12911 4.9825 9.02542 4.64755 8.83888V8.87001C4.64751 9.42807 4.84019 9.96896 5.19289 10.4009C5.54559 10.8328 6.03658 11.1292 6.58256 11.2398C6.22724 11.3361 5.85471 11.3503 5.49312 11.2813C5.64716 11.7614 5.94722 12.1813 6.3513 12.4822C6.75537 12.783 7.24323 12.9497 7.74657 12.959C6.89212 13.631 5.83687 13.9955 4.75059 13.9939C4.55817 13.994 4.36591 13.9827 4.1748 13.9602C5.27744 14.6705 6.56099 15.0475 7.87187 15.046C12.3094 15.046 14.7353 11.3637 14.7353 8.17018C14.7353 8.06643 14.7327 7.96163 14.728 7.85788C15.1999 7.51599 15.6072 7.09263 15.9309 6.60763L15.9319 6.60608V6.60608Z" fill="white"/>
</svg>
